Coordinates
version=1
nRows=6
nColumns=36
inDegrees=yes

Units are S.I. units (second, meters, Newtons, ...)
If the header above contains a line with 'inDegrees', this indicates whether rotational values are in degrees (yes) or radians (no).

endheader
time	pelvis_tilt	pelvis_list	pelvis_rotation	pelvis_tx	pelvis_ty	pelvis_tz	hip_flexion_r	hip_adduction_r	hip_rotation_r	knee_angle_r	knee_angle_r_beta	ankle_angle_r	subtalar_angle_r	mtp_angle_r	hip_flexion_l	hip_adduction_l	hip_rotation_l	knee_angle_l	knee_angle_l_beta	ankle_angle_l	subtalar_angle_l	mtp_angle_l	lumbar_extension	lumbar_bending	lumbar_rotation	arm_flex_r	arm_add_r	arm_rot_r	elbow_flex_r	pro_sup_r	arm_flex_l	arm_add_l	arm_rot_l	elbow_flex_l	pro_sup_l
      3.50000000	    -21.33323226	     -1.23518882	     -3.87598362	      1.69092521	      0.85892446	      0.13356370	     48.40892891	     -2.36226693	      0.60091343	     45.87903385	      0.80074020	     11.38017763	    -15.23595498	     -7.49999987	     49.01208862	    -10.81427443	     -2.51440968	     47.23022401	      0.82432292	     18.70823392	     -6.18936220	     -7.49999987	    -10.05287532	     -1.60344689	      0.81856751	     28.07515314	     -9.88209410	     21.83359797	     53.34288392	     63.69068493	     22.06779634	    -14.85037565	     15.68566361	     46.16157427	     68.25051970
      3.51666670	    -24.04866064	     -0.18565111	     -3.70495663	      1.69314064	      0.83198208	      0.13224262	     57.82786640	     -3.05204677	      1.28922072	     57.19890998	      0.99830931	     20.28102945	    -13.58383303	     -7.49999987	     57.59264759	    -11.02315638	     -2.70537122	     56.98262096	      0.99453435	     24.49701098	     -7.28105895	     -7.49999987	    -10.26867987	     -2.90503663	      1.52794280	     31.95736152	     -9.98400811	     20.54673543	     64.00711586	     82.45799998	     28.45891099	    -14.98505100	     17.10242064	     53.23041573	     80.89302261
      3.53333330	    -26.07820123	      0.48294753	     -3.50487843	      1.68046325	      0.82156983	      0.12877952	     64.84894260	     -3.67716070	      1.47135437	     65.05199994	      1.13537158	     27.11499501	    -10.78336508	     -7.49999987	     64.42495788	    -11.22324033	     -2.58197345	     64.28631091	      1.12200779	     28.26855302	     -7.91391554	     -7.49999987	    -11.59552991	     -3.71031726	      1.31132951	     36.58521335	    -10.01225105	     22.44384315	     71.82456575	     83.14067823	     34.32118106	    -15.66606027	     19.01662679	     60.52724027	     81.21258539
      3.55000000	    -28.04312590	      0.97808248	     -3.31286885	      1.65805634	      0.80099756	      0.12912735	     71.10943623	     -4.06995364	      1.69261308	     70.92088867	      1.23780302	     31.04179962	     -9.47445408	     -7.49999987	     70.77279749	    -11.46187314	     -2.48428942	     70.03894501	      1.22241019	     29.84914593	     -9.24855715	     -7.49999987	    -13.78433223	     -4.68221706	      2.44342822	     41.28674358	    -10.89052507	     21.54723501	     81.47256866	     93.19745877	     42.45189807	    -16.19525498	     24.94889092	     67.83153843	     83.68736039
      3.56666670	    -30.11882627	      1.30065788	     -3.21079411	      1.64848882	      0.77631594	      0.12332588	     77.00999153	     -4.50208581	      1.71219839	     75.71908774	      1.32154739	     34.04568502	     -7.79683294	     -7.49999987	     76.84297488	    -11.60874588	     -2.17385836	     74.93631221	      1.30788538	     30.77213978	    -10.51970318	     -7.49999987	    -14.90020430	     -4.84923527	      2.33118073	     46.62227012	    -10.86551589	     22.83318744	     89.78255309	     96.31904500	     47.88978170	    -16.51129074	     26.42954610	     75.12893315	     86.00375833
      3.58333330	    -31.36249003	      1.65408359	     -3.14974029	      1.64313880	      0.76372067	      0.11974379	     81.23809524	     -4.99546499	      1.91676371	     79.19684323	      1.38224567	     35.41771500	     -7.14448735	     -7.49999987	     81.14845111	    -11.45852284	     -1.94598749	     78.55313467	      1.37101084	     31.04763310	    -11.84861056	     -7.49999987	    -16.85522659	     -4.91754207	      2.49071581	     49.41570159	    -10.96821209	     21.98597268	     98.48643105	     97.59782234	     51.10456414	    -16.37019946	     26.23670419	     82.83676103	     87.99244640
